<svg xmlns="http://www.w3.org/2000/svg" xmlns:xlink="http://www.w3.org/1999/xlink" version="1.1" x="0px" y="0px" viewBox="0 0 100 100" enable-background="new 0 0 100 100" xml:space="preserve"><path fill="#fff" d="M82.605,5.881c-0.157-0.092-0.35-0.092-0.506-0.001l-31.5,18.072c-0.158,0.09-0.255,0.258-0.255,0.439v7.661  c-0.156-0.057-0.318-0.096-0.482-0.096c-0.246,0-0.492,0.064-0.712,0.192L17.93,50.283c-0.161,0.082-0.303,0.193-0.422,0.327  c-0.227,0.254-0.362,0.585-0.366,0.933c0,0.063,0.003,0.126,0.01,0.187v23.479c0,0.782,0.635,1.417,1.417,1.417h2.835  c0.783,0,1.417-0.635,1.417-1.417V55.706l23.256,13.617v23.447c0,0.783,0.635,1.418,1.418,1.418h2.835  c0.784,0,1.418-0.635,1.418-1.418V70.442l25.434-14.697v19.558c0,0.782,0.635,1.417,1.418,1.417h2.834  c0.783,0,1.418-0.635,1.418-1.417V52.11c0-0.006,0.005-0.012,0.005-0.018V6.319C82.858,6.139,82.762,5.971,82.605,5.881z   M50.332,92.771h-2.835v-24.26L21.405,53.233v21.976H18.57V51.573l-0.021-0.012l0.021-0.012v-0.008h0.013l31.279-18.168l0.482,0.279  L50.332,92.771z M78.602,75.303V54.828l2.834-1.626v22.101H78.602z"></path></svg>