<svg xmlns="http://www.w3.org/2000/svg" xmlns:xlink="http://www.w3.org/1999/xlink" version="1.1" x="0px" y="0px" viewBox="0 0 100 100" enable-background="new 0 0 100 100" xml:space="preserve"><polygon fill="#fff" points="50.253,68.599 46.985,66.727 46.985,93.244 50.253,95.111 53.521,93.244 53.521,66.727 "></polygon><polygon fill="#fff" points="70.416,58.12 67.147,60.052 67.147,82.767 70.416,84.634 73.683,82.767 73.683,56.249 "></polygon><polygon fill="#fff" points="29.583,57.186 26.316,55.314 26.316,81.832 29.583,83.698 32.852,81.832 32.852,58.706 "></polygon><path fill="#fff" d="M70.043,48.401L47.844,35.402l-21.02,12.475v4.694l23.429,13.492v-0.011l23.43-13.708v-4.683l-1.044-0.608L70.043,48.401z   M50.253,61.373l-0.035-0.021h0.071L50.253,61.373z"></path><polygon fill="#fff" points="73.683,17.632 73.621,17.596 73.621,17.561 73.367,17.452 51.154,4.764 47.826,6.503 47.889,6.539 47.834,6.516   47.834,33.033 70.354,45.944 73.621,44.078 73.621,17.663 "></polygon></svg>