<svg xmlns="http://www.w3.org/2000/svg" xmlns:xlink="http://www.w3.org/1999/xlink" version="1.1" x="0px" y="0px" viewBox="0 0 100 100" enable-background="new 0 0 100 100" xml:space="preserve"><g><path fill="#000000" d="M92.651,29.458c-0.053-0.031-0.123-0.031-0.177,0l-11.083,6.36c-0.057,0.033-0.09,0.091-0.09,0.157v2.699   c-0.056-0.021-0.115-0.037-0.17-0.037c-0.087,0-0.176,0.025-0.252,0.069l-8.389,4.87V41.35c0-0.061-0.033-0.122-0.09-0.154   c-0.053-0.032-0.125-0.032-0.177,0l-11.083,6.358c-0.057,0.033-0.09,0.091-0.09,0.157v2.697c-0.056-0.021-0.115-0.037-0.171-0.037   c-0.086,0-0.175,0.024-0.251,0.07l-8.674,5.036v-2.581c0-0.063-0.033-0.122-0.089-0.154c-0.053-0.033-0.125-0.033-0.178,0   L40.606,59.1c-0.056,0.03-0.089,0.091-0.089,0.155v2.698c-0.056-0.021-0.115-0.036-0.172-0.036c-0.085,0-0.174,0.023-0.251,0.067   l-10.986,6.38c-0.053,0.032-0.106,0.069-0.148,0.117c-0.08,0.089-0.127,0.203-0.127,0.324c0,0.025,0,0.049,0.003,0.07v8.259   c0,0.278,0.225,0.5,0.5,0.5h0.997c0.275,0,0.5-0.222,0.5-0.5v-6.861l8.183,4.791v8.253c0,0.272,0.225,0.496,0.5,0.496h0.996   c0.275,0,0.499-0.224,0.499-0.496v-7.859l8.948-5.169v6.881c0,0.274,0.226,0.497,0.5,0.497h0.998c0.275,0,0.5-0.223,0.5-0.497   v-8.162c0-0.003,0-0.003,0-0.003v-9.931l7.594,4.444v8.253c0,0.272,0.224,0.499,0.5,0.499h0.996c0.274,0,0.5-0.227,0.5-0.499   v-7.858l8.948-5.17v6.881c0,0.276,0.224,0.498,0.5,0.498h0.996c0.274,0,0.501-0.222,0.501-0.498v-8.161c0-0.003,0-0.003,0-0.003   v-9.954l7.309,4.279v8.253c0,0.272,0.226,0.498,0.5,0.498h0.996c0.275,0,0.5-0.226,0.5-0.498v-7.859l8.948-5.169v6.882   c0,0.274,0.224,0.496,0.5,0.496h0.996c0.274,0,0.501-0.222,0.501-0.496v-8.163c0-0.003,0-0.003,0-0.006V29.612   C92.741,29.551,92.708,29.491,92.651,29.458z M40.512,83.317h-0.996V74.78l-9.183-5.379v7.733h-0.997v-8.317l-0.008-0.006   l0.008-0.002v-0.004h0.003l11.007-6.393l0.172,0.101L40.512,83.317z M51.456,77.17h-0.998v-7.207l0.998-0.569V77.17z    M61.046,71.771H60.05v-8.535l-8.094-4.742v-2.441l8.925-5.185l0.171,0.103L61.046,71.771z M71.99,65.624h-0.996v-7.206l0.996-0.57   V65.624z M81.296,60.038H80.3v-8.536l-7.809-4.576v-2.772l8.641-5.019l0.17,0.101L81.296,60.038z M92.24,53.892h-0.996v-7.207   l0.996-0.572V53.892z"></path><path fill="#000000" d="M29.881,64.418c0.275,0,0.499-0.222,0.499-0.497v-8.16c0,0,0-0.003,0-0.006v-9.93l7.594,4.446v8.253   c0,0.272,0.225,0.497,0.5,0.497h0.996c0.275,0,0.5-0.225,0.5-0.497v-7.859l8.948-5.169v6.882c0,0.274,0.226,0.496,0.501,0.496   h0.996c0.276,0,0.5-0.222,0.5-0.496v-8.163c0-0.003,0-0.003,0-0.006v-9.955l7.31,4.283v8.254c0,0.272,0.225,0.497,0.5,0.497h0.997   c0.273,0,0.5-0.224,0.5-0.497v-7.86l8.947-5.171v6.884c0,0.274,0.226,0.496,0.499,0.496h0.998c0.275,0,0.499-0.222,0.499-0.496   v-8.165c0-0.003,0-0.003,0-0.006V16.365c0-0.062-0.032-0.121-0.087-0.154s-0.125-0.033-0.179,0l-11.083,6.358   c-0.057,0.033-0.089,0.091-0.089,0.158v2.696c-0.057-0.021-0.116-0.036-0.172-0.036c-0.085,0-0.175,0.024-0.251,0.067l-8.39,4.872   v-2.227c0-0.063-0.033-0.122-0.088-0.155c-0.053-0.032-0.124-0.032-0.178,0l-11.083,6.358c-0.056,0.033-0.089,0.092-0.089,0.158   v2.698c-0.056-0.021-0.116-0.036-0.171-0.036c-0.086,0-0.174,0.023-0.251,0.067l-8.674,5.039v-2.582   c0-0.061-0.032-0.121-0.088-0.153c-0.054-0.033-0.124-0.033-0.178,0l-11.083,6.357c-0.056,0.032-0.088,0.092-0.088,0.157v2.696   c-0.057-0.02-0.116-0.034-0.172-0.034c-0.085,0-0.174,0.022-0.251,0.067l-10.985,6.38c-0.054,0.03-0.107,0.069-0.148,0.118   c-0.08,0.088-0.127,0.203-0.127,0.324c0,0.024,0,0.048,0.003,0.069v8.259c0,0.277,0.224,0.5,0.499,0.5h0.998   c0.274,0,0.499-0.223,0.499-0.5v-6.861l8.183,4.791v8.253c0,0.271,0.225,0.498,0.5,0.498h0.997c0.274,0,0.5-0.227,0.5-0.498V62.21   l8.948-5.169v6.88c0,0.275,0.225,0.497,0.499,0.497H29.881z M69.668,33.434l0.998-0.571v7.781h-0.998V33.434z M50.415,52.378   h-0.996v-7.207l0.996-0.572V52.378z M59.556,25.884l0.172,0.1l-0.006,20.807h-0.997v-8.538l-7.81-4.578v-2.771L59.556,25.884z    M18.937,70.069h-0.997v-8.537l-9.181-5.38v7.734H7.761v-8.315l-0.009-0.007l0.009-0.003v-0.003h0.003l11.006-6.392l0.172,0.1   L18.937,70.069z M29.881,63.921h-0.998v-7.206l0.998-0.569V63.921z M39.305,37.619l0.171,0.1l-0.006,20.806h-0.996v-8.538   l-8.095-4.742v-2.439L39.305,37.619z"></path></g></svg>