<svg xmlns="http://www.w3.org/2000/svg" viewBox="0 0 100 100"><path fill="#fff" d="M50.253 68.599l-3.268-1.872v26.517l3.268 1.867 3.268-1.867V66.727zM70.416 58.12l-3.269 1.932v22.715l3.269 1.867 3.267-1.867V56.249zm-40.833-.934l-3.267-1.872v26.518l3.267 1.866 3.269-1.866V58.706zm40.46-8.785L47.844 35.402l-21.02 12.475v4.694l23.429 13.492v-.011l23.43-13.708v-4.683l-1.044-.608-2.596 1.348zm-19.79 12.972l-.035-.021h.071l-.036.021zm23.43-43.741l-.062-.036v-.035l-.254-.109L51.154 4.764l-3.328 1.739.063.036-.055-.023v26.517l22.52 12.911 3.267-1.866V17.663z"/></svg>