<svg xmlns="http://www.w3.org/2000/svg" viewBox="0 0 100 100"><path d="M92.651 29.458a.18.18 0 0 0-.177 0l-11.083 6.36a.178.178 0 0 0-.09.157v2.699a.5.5 0 0 0-.17-.037.51.51 0 0 0-.252.069l-8.389 4.87V41.35a.178.178 0 0 0-.09-.154.175.175 0 0 0-.177 0L61.14 47.554a.178.178 0 0 0-.09.157v2.697a.5.5 0 0 0-.171-.037.49.49 0 0 0-.251.07l-8.674 5.036v-2.581a.177.177 0 0 0-.089-.154.172.172 0 0 0-.178 0L40.606 59.1a.175.175 0 0 0-.089.155v2.698a.5.5 0 0 0-.172-.036.513.513 0 0 0-.251.067l-10.986 6.38a.616.616 0 0 0-.148.117.485.485 0 0 0-.124.394v8.259a.5.5 0 0 0 .5.5h.997a.5.5 0 0 0 .5-.5v-6.861l8.183 4.791v8.253a.5.5 0 0 0 .5.496h.996a.5.5 0 0 0 .499-.496v-7.859l8.948-5.169v6.881a.5.5 0 0 0 .5.497h.998a.5.5 0 0 0 .5-.497V59.074l7.594 4.444v8.253c0 .272.224.499.5.499h.996c.274 0 .5-.227.5-.499v-7.858l8.948-5.17v6.881c0 .276.224.498.5.498h.996a.5.5 0 0 0 .501-.498V47.506l7.309 4.279v8.253c0 .272.226.498.5.498h.996c.275 0 .5-.226.5-.498v-7.859l8.948-5.169v6.882c0 .274.224.496.5.496h.996a.5.5 0 0 0 .501-.496v-24.28a.182.182 0 0 0-.091-.154zM40.512 83.317h-.996V74.78l-9.183-5.379v7.733h-.997v-8.317l-.008-.006.008-.002v-.004h.003l11.007-6.393.172.101-.006 20.804zm10.944-6.147h-.998v-7.207l.998-.569v7.776zm9.59-5.399h-.996v-8.535l-8.094-4.742v-2.441l8.925-5.185.171.103-.006 20.8zm10.944-6.147h-.996v-7.206l.996-.57v7.776zm9.306-5.586H80.3v-8.536l-7.809-4.576v-2.772l8.641-5.019.17.101-.006 20.802zm10.944-6.146h-.996v-7.207l.996-.572v7.779zM29.881 64.418a.498.498 0 0 0 .499-.497V45.825l7.594 4.446v8.253a.5.5 0 0 0 .5.497h.996a.5.5 0 0 0 .5-.497v-7.859l8.948-5.169v6.882a.5.5 0 0 0 .501.496h.996c.276 0 .5-.222.5-.496V34.254l7.31 4.283v8.254a.5.5 0 0 0 .5.497h.997c.273 0 .5-.224.5-.497v-7.86l8.947-5.171v6.884a.5.5 0 0 0 .499.496h.998a.498.498 0 0 0 .499-.496V16.365c0-.062-.032-.121-.087-.154s-.125-.033-.179 0l-11.083 6.358a.178.178 0 0 0-.089.158v2.696a.51.51 0 0 0-.172-.036.521.521 0 0 0-.251.067l-8.39 4.872v-2.227a.177.177 0 1 0-.266-.155l-11.083 6.358a.18.18 0 0 0-.089.158v2.698a.504.504 0 0 0-.171-.036.51.51 0 0 0-.251.067l-8.674 5.039v-2.582a.177.177 0 0 0-.088-.153.172.172 0 0 0-.178 0L19.031 45.85a.178.178 0 0 0-.088.157v2.696a.53.53 0 0 0-.172-.034.502.502 0 0 0-.251.067l-10.985 6.38a.524.524 0 0 0-.275.442c0 .024 0 .048.003.069v8.259a.5.5 0 0 0 .499.5h.998a.5.5 0 0 0 .499-.5v-6.861l8.183 4.791v8.253c0 .271.225.498.5.498h.997c.274 0 .5-.227.5-.498V62.21l8.948-5.169v6.88c0 .275.225.497.499.497h.995zm39.787-30.984l.998-.571v7.781h-.998v-7.21zM50.415 52.378h-.996v-7.207l.996-.572v7.779zm9.141-26.494l.172.1-.006 20.807h-.997v-8.538l-7.81-4.578v-2.771l8.641-5.02zM18.937 70.069h-.997v-8.537l-9.181-5.38v7.734h-.998v-8.315l-.009-.007.009-.003v-.003h.003l11.006-6.392.172.1-.005 20.803zm10.944-6.148h-.998v-7.206l.998-.569v7.775zm9.424-26.302l.171.1-.006 20.806h-.996v-8.538l-8.095-4.742v-2.439l8.926-5.187z"/></svg>