<svg xmlns="http://www.w3.org/2000/svg" viewBox="0 0 100 100"><path fill="#fff" d="M82.605 5.881a.5.5 0 0 0-.506-.001l-31.5 18.072a.505.505 0 0 0-.255.439v7.661a1.412 1.412 0 0 0-.482-.096c-.246 0-.492.064-.712.192L17.93 50.283a1.434 1.434 0 0 0-.422.327 1.43 1.43 0 0 0-.356 1.12v23.479c0 .782.635 1.417 1.417 1.417h2.835c.783 0 1.417-.635 1.417-1.417V55.706l23.256 13.617V92.77c0 .783.635 1.418 1.418 1.418h2.835c.784 0 1.418-.635 1.418-1.418V70.442l25.434-14.697v19.558c0 .782.635 1.417 1.418 1.417h2.834c.783 0 1.418-.635 1.418-1.417V52.11c0-.006.005-.012.005-.018V6.319a.502.502 0 0 0-.252-.438zm-32.273 86.89h-2.835v-24.26L21.405 53.233v21.976H18.57V51.573l-.021-.012.021-.012v-.008h.013l31.279-18.168.482.279-.012 59.119zm28.27-17.468V54.828l2.834-1.626v22.101h-2.834z"/></svg>